<svg width="209" height="92" viewBox="0 0 209 92" fill="none" xmlns="http://www.w3.org/2000/svg">
<path d="M124.738 72.762C124.421 73.3513 124.035 73.8727 123.582 74.326C123.151 74.802 122.675 75.1873 122.154 75.482C121.655 75.7993 121.134 76.0373 120.59 76.196C120.046 76.3547 119.525 76.434 119.026 76.434H114.674L137.862 26.862C138.451 25.774 139.222 24.924 140.174 24.312C141.149 23.7 142.237 23.394 143.438 23.394H147.722L124.738 72.762ZM181.278 49.135L181.13 50.282L149.199 65.933L150.235 57.978C150.309 57.4107 150.518 56.8927 150.864 56.424C151.209 55.9307 151.739 55.5237 152.455 55.203L163.592 49.505C164.924 48.8883 166.416 48.395 168.069 48.025C167.304 47.8277 166.576 47.618 165.886 47.396C165.195 47.1493 164.554 46.8657 163.962 46.545L154.12 40.884C153.478 40.5387 153.047 40.1317 152.825 39.663C152.627 39.1697 152.566 38.6393 152.64 38.072L153.639 30.117L181.685 45.805L181.278 49.135Z" fill="white"/>
<path d="M37.814 33.117L36.815 41.072C36.741 41.6393 36.5313 42.1697 36.186 42.663C35.8407 43.1317 35.3103 43.5387 34.595 43.884L23.421 49.545C22.089 50.1617 20.5967 50.655 18.944 51.025C20.5473 51.395 21.9163 51.8883 23.051 52.505L32.93 58.203C33.5467 58.5237 33.966 58.9307 34.188 59.424C34.41 59.8927 34.484 60.4107 34.41 60.978L33.374 68.933L5.365 53.282L5.772 49.915L5.92 48.805L37.814 33.117Z" fill="white"/>
<path d="M68.6967 26H73.1633C73.7967 26.0002 74.4065 26.2498 74.8693 26.6985C75.3321 27.1471 75.6136 27.7613 75.6568 28.417C75.6999 29.0726 75.5016 29.7208 75.1019 30.2306C74.7022 30.7404 74.1308 31.0737 73.5033 31.1633L73.1667 31.1875H68.7C68.1203 31.1863 67.5583 31.3941 67.11 31.7754L66.86 32.0279L59.9467 39.8299H71.5C73.3479 39.8296 75.1309 40.5371 76.507 41.8167C77.8831 43.0963 78.7554 44.858 78.9567 46.7638H85.7133C85.9153 44.8592 86.7874 43.0989 88.1627 41.82C89.5381 40.5412 91.3198 39.8338 93.1667 39.8333L104.757 39.8299L97.8133 32.021C97.4208 31.5801 96.893 31.2941 96.32 31.2117L95.9733 31.1875H91.49C90.8566 31.1873 90.2469 30.9377 89.784 30.489C89.3212 30.0404 89.0398 29.4262 88.9966 28.7705C88.9534 28.1149 89.1517 27.4667 89.5514 26.9569C89.9512 26.4471 90.5225 26.1138 91.15 26.0242L91.49 26H95.9767C97.8529 26.0009 99.6607 26.7314 101.043 28.0473L101.487 28.5038L113.627 42.1539C113.793 42.3441 113.93 42.5516 114.033 42.7695C115.053 44.0975 115.663 45.7817 115.663 47.6111V59.7049C115.663 62.6858 114.522 65.5447 112.49 67.6525C110.459 69.7603 107.703 70.9445 104.83 70.9445H96.5C93.6268 70.9445 90.8713 69.7603 88.8397 67.6525C86.808 65.5447 85.6667 62.6858 85.6667 59.7049L85.6633 51.9513H78.9933V59.7049C78.9933 62.6858 77.852 65.5447 75.8203 67.6525C73.7887 69.7603 71.0332 70.9445 68.16 70.9445H59.8333C56.9602 70.9445 54.2047 69.7603 52.173 67.6525C50.1414 65.5447 49 62.6858 49 59.7049V47.6146C49 45.671 49.6867 43.8934 50.82 42.5308L50.9467 42.3406L51.0933 42.1608L63.1733 28.5177C64.4466 27.0796 66.1945 26.1908 68.07 26.0277L68.6967 26ZM71.4967 45.0208H56.5C55.837 45.0208 55.2011 45.2941 54.7322 45.7805C54.2634 46.2669 54 46.9267 54 47.6146V59.7049C54 63.0491 56.6133 65.757 59.8333 65.757H68.1633C69.7104 65.757 71.1942 65.1194 72.2881 63.9844C73.3821 62.8494 73.9967 61.31 73.9967 59.7049V47.6146C73.9967 46.9267 73.7333 46.2669 73.2644 45.7805C72.7956 45.2941 72.1597 45.0208 71.4967 45.0208ZM108.163 45.0208H93.1667C92.5036 45.0208 91.8677 45.2941 91.3989 45.7805C90.9301 46.2669 90.6667 46.9267 90.6667 47.6146V59.7049C90.6667 63.0491 93.28 65.757 96.5 65.757H104.83C106.377 65.757 107.861 65.1194 108.955 63.9844C110.049 62.8494 110.663 61.31 110.663 59.7049V47.6146C110.663 46.9267 110.4 46.2669 109.931 45.7805C109.462 45.2941 108.826 45.0208 108.163 45.0208Z" fill="white" stroke="white" stroke-width="2"/>
</svg>
