<svg width="586" height="102" viewBox="0 0 586 102" fill="none" xmlns="http://www.w3.org/2000/svg">
<path d="M59.304 33.968C61.9493 33.968 64.2747 34.5013 66.28 35.568C68.2853 36.592 69.864 37.936 71.016 39.6V34.544H80.04V70.256C80.04 73.5413 79.3787 76.464 78.056 79.024C76.7333 81.6267 74.7493 83.6747 72.104 85.168C69.4587 86.704 66.2587 87.472 62.504 87.472C57.4693 87.472 53.3307 86.2987 50.088 83.952C46.888 81.6053 45.0747 78.4053 44.648 74.352H53.544C54.0133 75.9733 55.016 77.2533 56.552 78.192C58.1307 79.1733 60.0293 79.664 62.248 79.664C64.8507 79.664 66.9627 78.8747 68.584 77.296C70.2053 75.76 71.016 73.4133 71.016 70.256V64.752C69.864 66.416 68.264 67.8027 66.216 68.912C64.2107 70.0213 61.9067 70.576 59.304 70.576C56.3173 70.576 53.5867 69.808 51.112 68.272C48.6373 66.736 46.6747 64.5813 45.224 61.808C43.816 58.992 43.112 55.7707 43.112 52.144C43.112 48.56 43.816 45.3813 45.224 42.608C46.6747 39.8347 48.616 37.7013 51.048 36.208C53.5227 34.7147 56.2747 33.968 59.304 33.968ZM71.016 52.272C71.016 50.096 70.5893 48.24 69.736 46.704C68.8827 45.1253 67.7307 43.9307 66.28 43.12C64.8293 42.2667 63.272 41.84 61.608 41.84C59.944 41.84 58.408 42.2453 57 43.056C55.592 43.8667 54.44 45.0613 53.544 46.64C52.6907 48.176 52.264 50.0107 52.264 52.144C52.264 54.2773 52.6907 56.1547 53.544 57.776C54.44 59.3547 55.592 60.5707 57 61.424C58.4507 62.2773 59.9867 62.704 61.608 62.704C63.272 62.704 64.8293 62.2987 66.28 61.488C67.7307 60.6347 68.8827 59.44 69.736 57.904C70.5893 56.3253 71.016 54.448 71.016 52.272ZM116.631 51.504C116.631 52.784 116.546 53.936 116.375 54.96H90.455C90.6683 57.52 91.5643 59.5253 93.143 60.976C94.7217 62.4267 96.663 63.152 98.967 63.152C102.295 63.152 104.663 61.7227 106.071 58.864H115.735C114.711 62.2773 112.748 65.0933 109.847 67.312C106.946 69.488 103.383 70.576 99.159 70.576C95.7457 70.576 92.6737 69.8293 89.943 68.336C87.255 66.8 85.143 64.6453 83.607 61.872C82.1137 59.0987 81.367 55.8987 81.367 52.272C81.367 48.6027 82.1137 45.3813 83.607 42.608C85.1003 39.8347 87.191 37.7013 89.879 36.208C92.567 34.7147 95.6603 33.968 99.159 33.968C102.53 33.968 105.538 34.6933 108.183 36.144C110.871 37.5947 112.94 39.664 114.391 42.352C115.884 44.9973 116.631 48.048 116.631 51.504ZM107.351 48.944C107.308 46.64 106.476 44.8053 104.855 43.44C103.234 42.032 101.25 41.328 98.903 41.328C96.6843 41.328 94.807 42.0107 93.271 43.376C91.7777 44.6987 90.8603 46.5547 90.519 48.944H107.351ZM133.795 70.576C130.382 70.576 127.31 69.8293 124.579 68.336C121.848 66.8 119.694 64.6453 118.115 61.872C116.579 59.0987 115.811 55.8987 115.811 52.272C115.811 48.6453 116.6 45.4453 118.179 42.672C119.8 39.8987 121.998 37.7653 124.771 36.272C127.544 34.736 130.638 33.968 134.051 33.968C137.464 33.968 140.558 34.736 143.331 36.272C146.104 37.7653 148.28 39.8987 149.859 42.672C151.48 45.4453 152.291 48.6453 152.291 52.272C152.291 55.8987 151.459 59.0987 149.795 61.872C148.174 64.6453 145.955 66.8 143.139 68.336C140.366 69.8293 137.251 70.576 133.795 70.576ZM133.795 62.768C135.416 62.768 136.931 62.384 138.339 61.616C139.79 60.8053 140.942 59.6107 141.795 58.032C142.648 56.4533 143.075 54.5333 143.075 52.272C143.075 48.9013 142.179 46.32 140.387 44.528C138.638 42.6933 136.483 41.776 133.923 41.776C131.363 41.776 129.208 42.6933 127.459 44.528C125.752 46.32 124.899 48.9013 124.899 52.272C124.899 55.6427 125.731 58.2453 127.395 60.08C129.102 61.872 131.235 62.768 133.795 62.768ZM162.703 40.048C163.856 38.1707 165.349 36.6987 167.184 35.632C169.061 34.5653 171.194 34.032 173.583 34.032V43.44H171.215C168.4 43.44 166.266 44.1013 164.816 45.424C163.407 46.7467 162.703 49.0507 162.703 52.336V70H153.743V34.544H162.703V40.048ZM188.387 33.968C191.032 33.968 193.357 34.5013 195.363 35.568C197.368 36.592 198.947 37.936 200.099 39.6V34.544H209.123V70.256C209.123 73.5413 208.461 76.464 207.139 79.024C205.816 81.6267 203.832 83.6747 201.187 85.168C198.541 86.704 195.341 87.472 191.587 87.472C186.552 87.472 182.413 86.2987 179.171 83.952C175.971 81.6053 174.157 78.4053 173.731 74.352H182.627C183.096 75.9733 184.099 77.2533 185.635 78.192C187.213 79.1733 189.112 79.664 191.331 79.664C193.933 79.664 196.045 78.8747 197.667 77.296C199.288 75.76 200.099 73.4133 200.099 70.256V64.752C198.947 66.416 197.347 67.8027 195.299 68.912C193.293 70.0213 190.989 70.576 188.387 70.576C185.4 70.576 182.669 69.808 180.195 68.272C177.72 66.736 175.757 64.5813 174.307 61.808C172.899 58.992 172.195 55.7707 172.195 52.144C172.195 48.56 172.899 45.3813 174.307 42.608C175.757 39.8347 177.699 37.7013 180.131 36.208C182.605 34.7147 185.357 33.968 188.387 33.968ZM200.099 52.272C200.099 50.096 199.672 48.24 198.819 46.704C197.965 45.1253 196.813 43.9307 195.363 43.12C193.912 42.2667 192.355 41.84 190.691 41.84C189.027 41.84 187.491 42.2453 186.083 43.056C184.675 43.8667 183.523 45.0613 182.627 46.64C181.773 48.176 181.347 50.0107 181.347 52.144C181.347 54.2773 181.773 56.1547 182.627 57.776C183.523 59.3547 184.675 60.5707 186.083 61.424C187.533 62.2773 189.069 62.704 190.691 62.704C192.355 62.704 193.912 62.2987 195.363 61.488C196.813 60.6347 197.965 59.44 198.819 57.904C199.672 56.3253 200.099 54.448 200.099 52.272ZM245.713 51.504C245.713 52.784 245.628 53.936 245.457 54.96H219.537C219.751 57.52 220.647 59.5253 222.225 60.976C223.804 62.4267 225.745 63.152 228.049 63.152C231.377 63.152 233.745 61.7227 235.153 58.864H244.817C243.793 62.2773 241.831 65.0933 238.929 67.312C236.028 69.488 232.465 70.576 228.241 70.576C224.828 70.576 221.756 69.8293 219.025 68.336C216.337 66.8 214.225 64.6453 212.689 61.872C211.196 59.0987 210.449 55.8987 210.449 52.272C210.449 48.6027 211.196 45.3813 212.689 42.608C214.183 39.8347 216.273 37.7013 218.961 36.208C221.649 34.7147 224.743 33.968 228.241 33.968C231.612 33.968 234.62 34.6933 237.265 36.144C239.953 37.5947 242.023 39.664 243.473 42.352C244.967 44.9973 245.713 48.048 245.713 51.504ZM236.433 48.944C236.391 46.64 235.559 44.8053 233.937 43.44C232.316 42.032 230.332 41.328 227.985 41.328C225.767 41.328 223.889 42.0107 222.353 43.376C220.86 44.6987 219.943 46.5547 219.601 48.944H236.433ZM306.416 34.544L296.048 70H286.384L279.92 45.232L273.456 70H263.728L253.296 34.544H262.384L268.656 61.552L275.44 34.544H284.912L291.568 61.488L297.84 34.544H306.416ZM339.104 51.504C339.104 52.784 339.018 53.936 338.848 54.96H312.928C313.141 57.52 314.037 59.5253 315.616 60.976C317.194 62.4267 319.136 63.152 321.44 63.152C324.768 63.152 327.136 61.7227 328.544 58.864H338.208C337.184 62.2773 335.221 65.0933 332.32 67.312C329.418 69.488 325.856 70.576 321.632 70.576C318.218 70.576 315.146 69.8293 312.416 68.336C309.728 66.8 307.616 64.6453 306.08 61.872C304.586 59.0987 303.84 55.8987 303.84 52.272C303.84 48.6027 304.586 45.3813 306.08 42.608C307.573 39.8347 309.664 37.7013 312.352 36.208C315.04 34.7147 318.133 33.968 321.632 33.968C325.002 33.968 328.01 34.6933 330.656 36.144C333.344 37.5947 335.413 39.664 336.864 42.352C338.357 44.9973 339.104 48.048 339.104 51.504ZM329.824 48.944C329.781 46.64 328.949 44.8053 327.328 43.44C325.706 42.032 323.722 41.328 321.376 41.328C319.157 41.328 317.28 42.0107 315.744 43.376C314.25 44.6987 313.333 46.5547 312.992 48.944H329.824ZM349.484 39.728C350.636 38.0213 352.214 36.6347 354.22 35.568C356.268 34.5013 358.593 33.968 361.196 33.968C364.225 33.968 366.956 34.7147 369.388 36.208C371.862 37.7013 373.804 39.8347 375.212 42.608C376.662 45.3387 377.388 48.5173 377.388 52.144C377.388 55.7707 376.662 58.992 375.212 61.808C373.804 64.5813 371.862 66.736 369.388 68.272C366.956 69.808 364.225 70.576 361.196 70.576C358.55 70.576 356.225 70.064 354.22 69.04C352.257 67.9733 350.678 66.608 349.484 64.944V70H340.524V22.64H349.484V39.728ZM368.236 52.144C368.236 50.0107 367.788 48.176 366.892 46.64C366.038 45.0613 364.886 43.8667 363.436 43.056C362.028 42.2453 360.492 41.84 358.828 41.84C357.206 41.84 355.67 42.2667 354.22 43.12C352.812 43.9307 351.66 45.1253 350.764 46.704C349.91 48.2827 349.484 50.1387 349.484 52.272C349.484 54.4053 349.91 56.2613 350.764 57.84C351.66 59.4187 352.812 60.6347 354.22 61.488C355.67 62.2987 357.206 62.704 358.828 62.704C360.492 62.704 362.028 62.2773 363.436 61.424C364.886 60.5707 366.038 59.3547 366.892 57.776C367.788 56.1973 368.236 54.32 368.236 52.144ZM386.604 52.144C386.604 48.56 387.308 45.3813 388.716 42.608C390.167 39.8347 392.13 37.7013 394.604 36.208C397.079 34.7147 399.831 33.968 402.86 33.968C405.164 33.968 407.362 34.48 409.452 35.504C411.543 36.4853 413.207 37.808 414.444 39.472V22.64H423.532V70H414.444V64.752C413.335 66.5013 411.778 67.9093 409.772 68.976C407.767 70.0427 405.442 70.576 402.796 70.576C399.81 70.576 397.079 69.808 394.604 68.272C392.13 66.736 390.167 64.5813 388.716 61.808C387.308 58.992 386.604 55.7707 386.604 52.144ZM414.508 52.272C414.508 50.096 414.082 48.24 413.228 46.704C412.375 45.1253 411.223 43.9307 409.772 43.12C408.322 42.2667 406.764 41.84 405.1 41.84C403.436 41.84 401.9 42.2453 400.492 43.056C399.084 43.8667 397.932 45.0613 397.036 46.64C396.183 48.176 395.756 50.0107 395.756 52.144C395.756 54.2773 396.183 56.1547 397.036 57.776C397.932 59.3547 399.084 60.5707 400.492 61.424C401.943 62.2773 403.479 62.704 405.1 62.704C406.764 62.704 408.322 62.2987 409.772 61.488C411.223 60.6347 412.375 59.44 413.228 57.904C414.082 56.3253 414.508 54.448 414.508 52.272ZM460.124 51.504C460.124 52.784 460.038 53.936 459.868 54.96H433.947C434.161 57.52 435.057 59.5253 436.635 60.976C438.214 62.4267 440.155 63.152 442.459 63.152C445.787 63.152 448.155 61.7227 449.563 58.864H459.228C458.203 62.2773 456.241 65.0933 453.339 67.312C450.438 69.488 446.875 70.576 442.651 70.576C439.238 70.576 436.166 69.8293 433.435 68.336C430.747 66.8 428.635 64.6453 427.099 61.872C425.606 59.0987 424.859 55.8987 424.859 52.272C424.859 48.6027 425.606 45.3813 427.099 42.608C428.593 39.8347 430.683 37.7013 433.371 36.208C436.059 34.7147 439.153 33.968 442.651 33.968C446.022 33.968 449.03 34.6933 451.675 36.144C454.363 37.5947 456.433 39.664 457.883 42.352C459.377 44.9973 460.124 48.048 460.124 51.504ZM450.843 48.944C450.801 46.64 449.969 44.8053 448.347 43.44C446.726 42.032 444.742 41.328 442.395 41.328C440.177 41.328 438.299 42.0107 436.763 43.376C435.27 44.6987 434.353 46.5547 434.011 48.944H450.843ZM476.328 61.744L485.288 34.544H494.824L481.704 70H470.824L457.768 34.544H467.368L476.328 61.744Z" fill="white"/>
<path d="M503.729 72.852C503.26 74.0853 502.508 75.0103 501.472 75.627C500.461 76.2683 499.425 76.589 498.364 76.589H494.035L515.384 21.348C515.803 20.238 516.469 19.3747 517.382 18.758C518.295 18.1413 519.343 17.833 520.527 17.833H524.893L503.729 72.852ZM561.425 46.027V50.06L531.788 65.563V58.385C531.788 57.8423 531.912 57.349 532.158 56.905C532.43 56.461 532.886 56.091 533.527 55.795L545.626 49.468C546.243 49.172 546.884 48.913 547.55 48.691C548.216 48.4443 548.932 48.2347 549.696 48.062C548.932 47.8893 548.216 47.692 547.55 47.47C546.884 47.2233 546.243 46.952 545.626 46.656L533.527 40.292C532.886 39.996 532.43 39.626 532.158 39.182C531.912 38.738 531.788 38.257 531.788 37.739V30.561L561.425 46.027Z" fill="white"/>
<path d="M22.866 52.545C21.608 53.1617 20.1773 53.655 18.574 54.025C20.1773 54.395 21.608 54.8883 22.866 55.505L33.374 61.203C34.04 61.5237 34.5087 61.9307 34.78 62.424C35.076 62.8927 35.224 63.4107 35.224 63.978V71.933L5.254 56.282V51.805L35.224 36.117V44.072C35.224 44.6393 35.076 45.1697 34.78 45.663C34.5087 46.1317 34.04 46.5387 33.374 46.884L22.866 52.545Z" fill="white"/>
</svg>
